# xmcd
#
# Track frame offsets:
#	150
#	19786
#	39514
#	59324
#	79320
#	94960
#	110920
#	126614
#	141890
#	160916
#	171938
#	186200
#
# Disc length: 2751 seconds
#
# Revision: 2
# Processed by: cddbd v1.5.2PL0 Copyright (c) Steve Scherf et al.
# Submitted via: audiograbber 1.83.01
#
DISCID=af0abd0c
DTITLE=Kimmie Rhodes - Walls Fall Down
DYEAR=1900
DGENRE=Country
TTITLE0=Walls Fall Down
TTITLE1=If I Needed You
TTITLE2=Sex and Gasoline
TTITLE3=Beautiful
TTITLE4=I've Been Loved by You
TTITLE5=All in All
TTITLE6=Make the Morning Shine
TTITLE7=The Fool on the Hill
TTITLE8=Your Majesty
TTITLE9=Shining Like a Sun
TTITLE10=There's a Storm Coming
TTITLE11=Last Seven Seconds
EXTD=
EXTT0=
EXTT1=
EXTT2=
EXTT3=
EXTT4=
EXTT5=
EXTT6=
EXTT7=
EXTT8=
EXTT9=
EXTT10=
EXTT11=
PLAYORDER=
